<svg width="703" height="278" viewBox="0 0 703 278" fill="none" xmlns="http://www.w3.org/2000/svg">
<g filter="url(#filter0_d_292_85)">
<mask id="path-1-inside-1_292_85" fill="white">
<path d="M207.812 250.77C207.812 256.86 210.962 260.22 216.562 260.22C222.161 260.22 225.382 256.859 225.382 250.77V222.84H237.842V251.399C237.842 265.539 229.651 272.68 216.562 272.68C203.472 272.68 195.281 265.539 195.281 251.399V222.84H207.812V250.77ZM313.755 222C322.505 222 330.205 226.41 334.825 233.13L324.465 240.06C322.155 236.7 318.165 234.46 313.755 234.46C306.545 234.46 300.734 240.2 300.734 247.34C300.734 254.48 306.545 260.22 313.755 260.22C318.375 260.22 322.435 257.77 324.745 254.2L335.104 261.13C330.554 268.06 322.645 272.68 313.755 272.68C299.685 272.68 288.274 261.41 288.274 247.34C288.274 233.27 299.685 222 313.755 222ZM581.855 259.87C585.355 259.87 588.226 262.74 588.226 266.24C588.225 269.81 585.355 272.609 581.855 272.609C578.286 272.609 575.486 269.81 575.485 266.24C575.485 262.74 578.285 259.87 581.855 259.87ZM124.816 260.01H143.646V271.84H112.356V222.84H124.816V260.01ZM195.244 271.84H181.733L178.443 262.18H161.084L157.794 271.84H144.354L162.974 222.84H176.554L195.244 271.84ZM273.682 252.03V222.84H286.142V271.84H272.842L254.502 242.649V271.84H242.042V222.84H255.272L273.682 252.03ZM348.98 241.39H368.16V222.84H380.62V271.84H368.16V253.29H348.98V271.84H336.521V222.84H348.98V241.39ZM433.247 234.67H421.768V271.84H409.308V234.67H397.827V222.84H433.247V234.67ZM467.403 234.67H449.203V241.74H466.144V252.31H449.203V260.01H468.033V271.84H436.743V222.84H467.403V234.67ZM519.631 271.84H506.121L502.831 262.18H485.471L482.181 271.84H468.741L487.361 222.84H500.94L519.631 271.84ZM545.466 240.13L557.016 222.84H569.896V271.84H557.436V241.39L548.336 254.97H542.666L533.496 241.39V271.84H521.036V222.84H533.916L545.466 240.13ZM586.476 255.95H577.165L575.905 222.84H587.735L586.476 255.95ZM164.724 251.54H174.804L169.764 236.84L164.724 251.54ZM489.111 251.54H499.19L494.15 236.84L489.111 251.54ZM48.9023 89.5068C61.1065 89.5069 72.2013 94.1692 80.5605 101.812L68.3984 122.455C64.1161 116.441 56.883 112.453 48.9023 112.453C35.6306 112.453 24.9357 123.024 24.9355 136.173C24.9355 149.322 35.6305 159.894 48.9023 159.894C57.2559 159.894 64.6151 155.54 68.9033 149.154L80.7207 170.377C72.3368 178.095 61.1227 182.84 48.9023 182.84C23.003 182.84 2 162.084 2 136.173C2.00017 110.261 23.0031 89.5068 48.9023 89.5068ZM111.752 124.569H142.606V89.5068H166.704V182.84H142.606V145.507H111.752V182.84H87.6543V89.5068H111.752V124.569ZM223.848 110.443H195.067V124.948H222.972V145.885H195.067V161.903H223.848V182.84H172.418V89.5068H223.848V110.443ZM261.427 89.5068C267.382 89.5069 272.609 90.843 277.349 93.2734C286.951 98.2561 291.57 105.427 291.691 117.458H268.962C267.99 111.017 265.316 108.708 260.819 108.708C256.565 108.708 252.919 111.746 252.919 115.757C252.919 121.104 257.78 123.535 267.625 127.788C287.437 136.295 292.421 143.465 292.421 155.253C292.421 172.631 280.509 182.84 261.062 182.84C241.493 182.84 228.609 172.631 228.609 153.309V151.364H251.46C251.582 158.777 255.228 163.639 260.94 163.639C265.681 163.639 269.57 159.871 269.57 155.01C269.57 147.84 259.603 144.68 251.46 141.398C236.753 135.444 230.069 127.666 230.068 116C230.068 100.688 244.897 89.5068 261.427 89.5068ZM330 89.5068C335.955 89.5069 341.182 90.843 345.922 93.2734C355.524 98.2561 360.142 105.427 360.264 117.458H337.535C336.563 111.017 333.889 108.708 329.392 108.708C325.138 108.708 321.491 111.747 321.491 115.757C321.491 121.104 326.353 123.535 336.198 127.788C356.01 136.295 360.993 143.465 360.993 155.253C360.993 172.631 349.082 182.84 329.635 182.84C310.066 182.84 297.183 172.631 297.183 153.309V151.364H320.033C320.155 158.777 323.801 163.639 329.514 163.639C334.254 163.639 338.143 159.871 338.143 155.01C338.142 147.84 328.177 144.68 320.033 141.398C305.327 135.444 298.642 127.666 298.642 116C298.642 100.688 313.47 89.5068 330 89.5068ZM392.379 135.981L420.104 182.84H391.144L364.864 135.981L378.88 112.361H407.092L392.379 135.981ZM448.614 182.84H424.804V89.5068H448.614V182.84ZM511.462 148.533L510.448 89.5068H533.378V182.84H512.602L476.624 125.831L477.258 182.84H454.328V89.5068H474.978L511.462 148.533ZM586.001 89.5068C606.185 89.5068 625.644 103.222 630.721 121.306H605.098C600.867 113.902 593.979 109.654 585.397 109.654C571.015 109.654 560.983 121.305 560.982 135.748C560.982 150.676 570.41 162.692 585.518 162.692C596.154 162.692 604.131 157.473 606.911 148.249H580.2V129.923H633.38V135.021C633.38 159.173 615.733 182.84 585.639 182.84C559.17 182.84 538.14 162.085 538.14 135.748C538.14 108.562 560.016 89.5071 586.001 89.5068ZM670.006 89.5068C675.962 89.5068 681.188 90.8429 685.929 93.2734C695.531 98.2561 700.149 105.427 700.271 117.458H677.542C676.57 111.017 673.896 108.708 669.398 108.708C665.144 108.708 661.498 111.746 661.498 115.757C661.498 121.104 666.36 123.535 676.205 127.788C696.017 136.295 701 143.465 701 155.253C701 172.631 689.089 182.84 669.642 182.84C650.073 182.84 637.189 172.632 637.189 153.309V151.364H660.04C660.162 158.777 663.807 163.638 669.52 163.639C674.26 163.639 678.149 159.871 678.149 155.01C678.149 147.84 668.183 144.68 660.04 141.398C645.333 135.444 638.648 127.666 638.647 116C638.647 100.688 653.476 89.507 670.006 89.5068ZM406.936 106.052H378.743L373.889 82.8398L383.596 87.5713L392.839 82.8398L402.083 87.5713L411.79 82.8398L406.936 106.052ZM383.944 93.0322L380.837 91.5146L382.636 101.321H403.041L404.841 91.5146L401.734 93.0322L392.839 88.5273L383.944 93.0322ZM240.307 33.1797C240.307 47.9495 231.207 50.6796 223.927 50.6797C215.177 50.6797 208.596 45.4295 207.896 37.7295L219.656 34.4395C219.866 36.5395 221.197 38.2197 223.927 38.2197C226.657 38.2196 227.847 36.0496 227.847 33.1797V0.839844H240.307V33.1797ZM267.917 0C281.917 0 293.397 11.2698 293.397 25.3398C293.397 39.4098 281.917 50.6797 267.917 50.6797C253.847 50.6796 242.438 39.4098 242.438 25.3398C242.438 11.2699 253.847 7.53758e-05 267.917 0ZM307.928 49.8398H295.468V0.839844H307.928V49.8398ZM343.79 30.0303V0.839844H356.25V49.8398H342.95L324.61 20.6494V49.8398H312.15V0.839844H325.38L343.79 30.0303ZM408.877 12.6699H397.397V49.8398H384.938V12.6699H373.457V0.839844H408.877V12.6699ZM424.833 19.3896H444.013V0.839844H456.473V49.8398H444.013V31.29H424.833V49.8398H412.373V0.839844H424.833V19.3896ZM491.366 12.6699H473.166V19.7402H490.105V30.3096H473.166V38.0098H491.996V49.8398H460.706V0.839844H491.366V12.6699ZM267.917 12.46C260.707 12.46 254.897 18.1999 254.897 25.3398C254.898 32.4798 260.707 38.2197 267.917 38.2197C275.057 38.2197 280.937 32.4798 280.938 25.3398C280.938 18.1998 275.057 12.46 267.917 12.46Z"/>
</mask>
<path d="M207.812 250.77C207.812 256.86 210.962 260.22 216.562 260.22C222.161 260.22 225.382 256.859 225.382 250.77V222.84H237.842V251.399C237.842 265.539 229.651 272.68 216.562 272.68C203.472 272.68 195.281 265.539 195.281 251.399V222.84H207.812V250.77ZM313.755 222C322.505 222 330.205 226.41 334.825 233.13L324.465 240.06C322.155 236.7 318.165 234.46 313.755 234.46C306.545 234.46 300.734 240.2 300.734 247.34C300.734 254.48 306.545 260.22 313.755 260.22C318.375 260.22 322.435 257.77 324.745 254.2L335.104 261.13C330.554 268.06 322.645 272.68 313.755 272.68C299.685 272.68 288.274 261.41 288.274 247.34C288.274 233.27 299.685 222 313.755 222ZM581.855 259.87C585.355 259.87 588.226 262.74 588.226 266.24C588.225 269.81 585.355 272.609 581.855 272.609C578.286 272.609 575.486 269.81 575.485 266.24C575.485 262.74 578.285 259.87 581.855 259.87ZM124.816 260.01H143.646V271.84H112.356V222.84H124.816V260.01ZM195.244 271.84H181.733L178.443 262.18H161.084L157.794 271.84H144.354L162.974 222.84H176.554L195.244 271.84ZM273.682 252.03V222.84H286.142V271.84H272.842L254.502 242.649V271.84H242.042V222.84H255.272L273.682 252.03ZM348.98 241.39H368.16V222.84H380.62V271.84H368.16V253.29H348.98V271.84H336.521V222.84H348.98V241.39ZM433.247 234.67H421.768V271.84H409.308V234.67H397.827V222.84H433.247V234.67ZM467.403 234.67H449.203V241.74H466.144V252.31H449.203V260.01H468.033V271.84H436.743V222.84H467.403V234.67ZM519.631 271.84H506.121L502.831 262.18H485.471L482.181 271.84H468.741L487.361 222.84H500.94L519.631 271.84ZM545.466 240.13L557.016 222.84H569.896V271.84H557.436V241.39L548.336 254.97H542.666L533.496 241.39V271.84H521.036V222.84H533.916L545.466 240.13ZM586.476 255.95H577.165L575.905 222.84H587.735L586.476 255.95ZM164.724 251.54H174.804L169.764 236.84L164.724 251.54ZM489.111 251.54H499.19L494.15 236.84L489.111 251.54ZM48.9023 89.5068C61.1065 89.5069 72.2013 94.1692 80.5605 101.812L68.3984 122.455C64.1161 116.441 56.883 112.453 48.9023 112.453C35.6306 112.453 24.9357 123.024 24.9355 136.173C24.9355 149.322 35.6305 159.894 48.9023 159.894C57.2559 159.894 64.6151 155.54 68.9033 149.154L80.7207 170.377C72.3368 178.095 61.1227 182.84 48.9023 182.84C23.003 182.84 2 162.084 2 136.173C2.00017 110.261 23.0031 89.5068 48.9023 89.5068ZM111.752 124.569H142.606V89.5068H166.704V182.84H142.606V145.507H111.752V182.84H87.6543V89.5068H111.752V124.569ZM223.848 110.443H195.067V124.948H222.972V145.885H195.067V161.903H223.848V182.84H172.418V89.5068H223.848V110.443ZM261.427 89.5068C267.382 89.5069 272.609 90.843 277.349 93.2734C286.951 98.2561 291.57 105.427 291.691 117.458H268.962C267.99 111.017 265.316 108.708 260.819 108.708C256.565 108.708 252.919 111.746 252.919 115.757C252.919 121.104 257.78 123.535 267.625 127.788C287.437 136.295 292.421 143.465 292.421 155.253C292.421 172.631 280.509 182.84 261.062 182.84C241.493 182.84 228.609 172.631 228.609 153.309V151.364H251.46C251.582 158.777 255.228 163.639 260.94 163.639C265.681 163.639 269.57 159.871 269.57 155.01C269.57 147.84 259.603 144.68 251.46 141.398C236.753 135.444 230.069 127.666 230.068 116C230.068 100.688 244.897 89.5068 261.427 89.5068ZM330 89.5068C335.955 89.5069 341.182 90.843 345.922 93.2734C355.524 98.2561 360.142 105.427 360.264 117.458H337.535C336.563 111.017 333.889 108.708 329.392 108.708C325.138 108.708 321.491 111.747 321.491 115.757C321.491 121.104 326.353 123.535 336.198 127.788C356.01 136.295 360.993 143.465 360.993 155.253C360.993 172.631 349.082 182.84 329.635 182.84C310.066 182.84 297.183 172.631 297.183 153.309V151.364H320.033C320.155 158.777 323.801 163.639 329.514 163.639C334.254 163.639 338.143 159.871 338.143 155.01C338.142 147.84 328.177 144.68 320.033 141.398C305.327 135.444 298.642 127.666 298.642 116C298.642 100.688 313.47 89.5068 330 89.5068ZM392.379 135.981L420.104 182.84H391.144L364.864 135.981L378.88 112.361H407.092L392.379 135.981ZM448.614 182.84H424.804V89.5068H448.614V182.84ZM511.462 148.533L510.448 89.5068H533.378V182.84H512.602L476.624 125.831L477.258 182.84H454.328V89.5068H474.978L511.462 148.533ZM586.001 89.5068C606.185 89.5068 625.644 103.222 630.721 121.306H605.098C600.867 113.902 593.979 109.654 585.397 109.654C571.015 109.654 560.983 121.305 560.982 135.748C560.982 150.676 570.41 162.692 585.518 162.692C596.154 162.692 604.131 157.473 606.911 148.249H580.2V129.923H633.38V135.021C633.38 159.173 615.733 182.84 585.639 182.84C559.17 182.84 538.14 162.085 538.14 135.748C538.14 108.562 560.016 89.5071 586.001 89.5068ZM670.006 89.5068C675.962 89.5068 681.188 90.8429 685.929 93.2734C695.531 98.2561 700.149 105.427 700.271 117.458H677.542C676.57 111.017 673.896 108.708 669.398 108.708C665.144 108.708 661.498 111.746 661.498 115.757C661.498 121.104 666.36 123.535 676.205 127.788C696.017 136.295 701 143.465 701 155.253C701 172.631 689.089 182.84 669.642 182.84C650.073 182.84 637.189 172.632 637.189 153.309V151.364H660.04C660.162 158.777 663.807 163.638 669.52 163.639C674.26 163.639 678.149 159.871 678.149 155.01C678.149 147.84 668.183 144.68 660.04 141.398C645.333 135.444 638.648 127.666 638.647 116C638.647 100.688 653.476 89.507 670.006 89.5068ZM406.936 106.052H378.743L373.889 82.8398L383.596 87.5713L392.839 82.8398L402.083 87.5713L411.79 82.8398L406.936 106.052ZM383.944 93.0322L380.837 91.5146L382.636 101.321H403.041L404.841 91.5146L401.734 93.0322L392.839 88.5273L383.944 93.0322ZM240.307 33.1797C240.307 47.9495 231.207 50.6796 223.927 50.6797C215.177 50.6797 208.596 45.4295 207.896 37.7295L219.656 34.4395C219.866 36.5395 221.197 38.2197 223.927 38.2197C226.657 38.2196 227.847 36.0496 227.847 33.1797V0.839844H240.307V33.1797ZM267.917 0C281.917 0 293.397 11.2698 293.397 25.3398C293.397 39.4098 281.917 50.6797 267.917 50.6797C253.847 50.6796 242.438 39.4098 242.438 25.3398C242.438 11.2699 253.847 7.53758e-05 267.917 0ZM307.928 49.8398H295.468V0.839844H307.928V49.8398ZM343.79 30.0303V0.839844H356.25V49.8398H342.95L324.61 20.6494V49.8398H312.15V0.839844H325.38L343.79 30.0303ZM408.877 12.6699H397.397V49.8398H384.938V12.6699H373.457V0.839844H408.877V12.6699ZM424.833 19.3896H444.013V0.839844H456.473V49.8398H444.013V31.29H424.833V49.8398H412.373V0.839844H424.833V19.3896ZM491.366 12.6699H473.166V19.7402H490.105V30.3096H473.166V38.0098H491.996V49.8398H460.706V0.839844H491.366V12.6699ZM267.917 12.46C260.707 12.46 254.897 18.1999 254.897 25.3398C254.898 32.4798 260.707 38.2197 267.917 38.2197C275.057 38.2197 280.937 32.4798 280.938 25.3398C280.938 18.1998 275.057 12.46 267.917 12.46Z" fill="url(#paint0_linear_292_85)"/>
<path d="M216.562 260.22V261.22V261.22V260.22ZM225.382 222.84V221.84H224.382V222.84H225.382ZM237.842 222.84H238.842V221.84H237.842V222.84ZM216.562 272.68V273.68V273.68V272.68ZM195.281 222.84V221.84H194.281V222.84H195.281ZM207.812 222.84H208.812V221.84H207.812V222.84ZM313.755 222V221V221V222ZM334.825 233.13L335.381 233.961L336.223 233.398L335.649 232.563L334.825 233.13ZM324.465 240.06L323.641 240.626L324.2 241.44L325.021 240.891L324.465 240.06ZM313.755 234.46V233.46V233.46V234.46ZM300.734 247.34H299.734V247.34H300.734ZM313.755 260.22V261.22V261.22V260.22ZM324.745 254.2L325.301 253.369L324.457 252.804L323.906 253.657L324.745 254.2ZM335.104 261.13L335.94 261.679L336.485 260.85L335.66 260.299L335.104 261.13ZM313.755 272.68V273.68V273.68V272.68ZM288.274 247.34H287.274V247.34H288.274ZM581.855 259.87V258.87V258.87V259.87ZM588.226 266.24L589.226 266.24V266.24H588.226ZM581.855 272.609V273.609V273.609V272.609ZM575.485 266.24H574.485V266.24L575.485 266.24ZM124.816 260.01H123.816V261.01H124.816V260.01ZM143.646 260.01H144.646V259.01H143.646V260.01ZM143.646 271.84V272.84H144.646V271.84H143.646ZM112.356 271.84H111.356V272.84H112.356V271.84ZM112.356 222.84V221.84H111.356V222.84H112.356ZM124.816 222.84H125.816V221.84H124.816V222.84ZM195.244 271.84V272.84H196.696L196.178 271.483L195.244 271.84ZM181.733 271.84L180.787 272.162L181.018 272.84H181.733V271.84ZM178.443 262.18L179.39 261.857L179.159 261.18H178.443V262.18ZM161.084 262.18V261.18H160.368L160.137 261.857L161.084 262.18ZM157.794 271.84V272.84H158.51L158.741 272.162L157.794 271.84ZM144.354 271.84L143.419 271.485L142.904 272.84H144.354V271.84ZM162.974 222.84V221.84H162.284L162.039 222.485L162.974 222.84ZM176.554 222.84L177.488 222.483L177.243 221.84H176.554V222.84ZM273.682 252.03L272.836 252.564L274.682 255.491V252.03H273.682ZM273.682 222.84V221.84H272.682V222.84H273.682ZM286.142 222.84H287.142V221.84H286.142V222.84ZM286.142 271.84V272.84H287.142V271.84H286.142ZM272.842 271.84L271.995 272.372L272.289 272.84H272.842V271.84ZM254.502 242.649L255.349 242.117L253.502 239.178V242.649H254.502ZM254.502 271.84V272.84H255.502V271.84H254.502ZM242.042 271.84H241.042V272.84H242.042V271.84ZM242.042 222.84V221.84H241.042V222.84H242.042ZM255.272 222.84L256.118 222.306L255.824 221.84H255.272V222.84ZM348.98 241.39H347.98V242.39H348.98V241.39ZM368.16 241.39V242.39H369.16V241.39H368.16ZM368.16 222.84V221.84H367.16V222.84H368.16ZM380.62 222.84H381.62V221.84H380.62V222.84ZM380.62 271.84V272.84H381.62V271.84H380.62ZM368.16 271.84H367.16V272.84H368.16V271.84ZM368.16 253.29H369.16V252.29H368.16V253.29ZM348.98 253.29V252.29H347.98V253.29H348.98ZM348.98 271.84V272.84H349.98V271.84H348.98ZM336.521 271.84H335.521V272.84H336.521V271.84ZM336.521 222.84V221.84H335.521V222.84H336.521ZM348.98 222.84H349.98V221.84H348.98V222.84ZM433.247 234.67V235.67H434.247V234.67H433.247ZM421.768 234.67V233.67H420.768V234.67H421.768ZM421.768 271.84V272.84H422.768V271.84H421.768ZM409.308 271.84H408.308V272.84H409.308V271.84ZM409.308 234.67H410.308V233.67H409.308V234.67ZM397.827 234.67H396.827V235.67H397.827V234.67ZM397.827 222.84V221.84H396.827V222.84H397.827ZM433.247 222.84H434.247V221.84H433.247V222.84ZM467.403 234.67V235.67H468.403V234.67H467.403ZM449.203 234.67V233.67H448.203V234.67H449.203ZM449.203 241.74H448.203V242.74H449.203V241.74ZM466.144 241.74H467.144V240.74H466.144V241.74ZM466.144 252.31V253.31H467.144V252.31H466.144ZM449.203 252.31V251.31H448.203V252.31H449.203ZM449.203 260.01H448.203V261.01H449.203V260.01ZM468.033 260.01H469.033V259.01H468.033V260.01ZM468.033 271.84V272.84H469.033V271.84H468.033ZM436.743 271.84H435.743V272.84H436.743V271.84ZM436.743 222.84V221.84H435.743V222.84H436.743ZM467.403 222.84H468.403V221.84H467.403V222.84ZM519.631 271.84V272.84H521.083L520.565 271.483L519.631 271.84ZM506.121 271.84L505.174 272.162L505.405 272.84H506.121V271.84ZM502.831 262.18L503.778 261.857L503.547 261.18H502.831V262.18ZM485.471 262.18V261.18H484.755L484.524 261.857L485.471 262.18ZM482.181 271.84V272.84H482.896L483.127 272.162L482.181 271.84ZM468.741 271.84L467.806 271.485L467.291 272.84H468.741V271.84ZM487.361 222.84V221.84H486.672L486.427 222.485L487.361 222.84ZM500.94 222.84L501.875 222.483L501.629 221.84H500.94V222.84ZM545.466 240.13L544.634 240.685L545.466 241.93L546.297 240.685L545.466 240.13ZM557.016 222.84V221.84H556.481L556.184 222.284L557.016 222.84ZM569.896 222.84H570.896V221.84H569.896V222.84ZM569.896 271.84V272.84H570.896V271.84H569.896ZM557.436 271.84H556.436V272.84H557.436V271.84ZM557.436 241.39H558.436V238.101L556.605 240.833L557.436 241.39ZM548.336 254.97V255.97H548.87L549.167 255.526L548.336 254.97ZM542.666 254.97L541.837 255.529L542.135 255.97H542.666V254.97ZM533.496 241.39L534.325 240.83L532.496 238.122V241.39H533.496ZM533.496 271.84V272.84H534.496V271.84H533.496ZM521.036 271.84H520.036V272.84H521.036V271.84ZM521.036 222.84V221.84H520.036V222.84H521.036ZM533.916 222.84L534.748 222.284L534.451 221.84H533.916V222.84ZM586.476 255.95V256.95H587.438L587.475 255.988L586.476 255.95ZM577.165 255.95L576.166 255.988L576.202 256.95H577.165V255.95ZM575.905 222.84V221.84H574.867L574.906 222.878L575.905 222.84ZM587.735 222.84L588.735 222.878L588.774 221.84H587.735V222.84ZM164.724 251.54L163.778 251.216L163.324 252.54H164.724V251.54ZM174.804 251.54V252.54H176.204L175.75 251.216L174.804 251.54ZM169.764 236.84L170.71 236.516L169.764 233.757L168.818 236.516L169.764 236.84ZM489.111 251.54L488.165 251.216L487.711 252.54H489.111V251.54ZM499.19 251.54V252.54H500.59L500.136 251.216L499.19 251.54ZM494.15 236.84L495.096 236.516L494.15 233.756L493.204 236.516L494.15 236.84ZM48.9023 89.5068V88.5068V88.5068V89.5068ZM80.5605 101.812L81.4221 102.32L81.8337 101.622L81.2353 101.074L80.5605 101.812ZM68.3984 122.455L67.5838 123.035L68.4777 124.291L69.26 122.963L68.3984 122.455ZM48.9023 112.453L48.9023 111.453H48.9023V112.453ZM24.9355 136.173L23.9355 136.173V136.173H24.9355ZM48.9023 159.894V160.894H48.9023L48.9023 159.894ZM68.9033 149.154L69.777 148.668L68.983 147.242L68.0732 148.597L68.9033 149.154ZM80.7207 170.377L81.398 171.113L81.9778 170.579L81.5944 169.89L80.7207 170.377ZM48.9023 182.84V183.84V183.84V182.84ZM2 136.173H1V136.173H2ZM111.752 124.569H110.752V125.569H111.752V124.569ZM142.606 124.569V125.569H143.606V124.569H142.606ZM142.606 89.5068V88.5068H141.606V89.5068H142.606ZM166.704 89.5068H167.704V88.5068H166.704V89.5068ZM166.704 182.84V183.84H167.704V182.84H166.704ZM142.606 182.84H141.606V183.84H142.606V182.84ZM142.606 145.507H143.606V144.507H142.606V145.507ZM111.752 145.507V144.507H110.752V145.507H111.752ZM111.752 182.84V183.84H112.752V182.84H111.752ZM87.6543 182.84H86.6543V183.84H87.6543V182.84ZM87.6543 89.5068V88.5068H86.6543V89.5068H87.6543ZM111.752 89.5068H112.752V88.5068H111.752V89.5068ZM223.848 110.443V111.443H224.848V110.443H223.848ZM195.067 110.443V109.443H194.067V110.443H195.067ZM195.067 124.948H194.067V125.948H195.067V124.948ZM222.972 124.948H223.972V123.948H222.972V124.948ZM222.972 145.885V146.885H223.972V145.885H222.972ZM195.067 145.885V144.885H194.067V145.885H195.067ZM195.067 161.903H194.067V162.903H195.067V161.903ZM223.848 161.903H224.848V160.903H223.848V161.903ZM223.848 182.84V183.84H224.848V182.84H223.848ZM172.418 182.84H171.418V183.84H172.418V182.84ZM172.418 89.5068V88.5068H171.418V89.5068H172.418ZM223.848 89.5068H224.848V88.5068H223.848V89.5068ZM261.427 89.5068V88.5068V88.5068V89.5068ZM277.349 93.2734L277.809 92.3858L277.805 92.3836L277.349 93.2734ZM291.691 117.458V118.458H292.702L292.691 117.448L291.691 117.458ZM268.962 117.458L267.973 117.607L268.102 118.458H268.962V117.458ZM260.819 108.708L260.819 107.708H260.819V108.708ZM252.919 115.757H251.919V115.757L252.919 115.757ZM267.625 127.788L267.228 128.706L267.23 128.707L267.625 127.788ZM292.421 155.253H293.421V155.253H292.421ZM261.062 182.84V183.84V183.84V182.84ZM228.609 153.309H227.609H228.609ZM228.609 151.364V150.364H227.609V151.364H228.609ZM251.46 151.364L252.46 151.348L252.444 150.364H251.46V151.364ZM260.94 163.639V164.639V164.639V163.639ZM269.57 155.01H270.57V155.01L269.57 155.01ZM251.46 141.398L251.085 142.325L251.086 142.326L251.46 141.398ZM230.068 116H229.068V116L230.068 116ZM330 89.5068V88.5068V88.5068V89.5068ZM345.922 93.2734L346.382 92.3858L346.378 92.3836L345.922 93.2734ZM360.264 117.458V118.458H361.274L361.264 117.448L360.264 117.458ZM337.535 117.458L336.546 117.607L336.675 118.458H337.535V117.458ZM329.392 108.708V107.708H329.392L329.392 108.708ZM321.491 115.757H320.491V115.757L321.491 115.757ZM336.198 127.788L335.802 128.706L335.804 128.707L336.198 127.788ZM360.993 155.253H361.993V155.253H360.993ZM329.635 182.84V183.84V183.84V182.84ZM297.183 153.309H296.183H297.183ZM297.183 151.364V150.364H296.183V151.364H297.183ZM320.033 151.364L321.033 151.348L321.017 150.364H320.033V151.364ZM329.514 163.639V164.639H329.514L329.514 163.639ZM338.143 155.01H339.143V155.01L338.143 155.01ZM320.033 141.398L319.658 142.325L319.659 142.326L320.033 141.398ZM298.642 116H297.642V116L298.642 116ZM392.379 135.981L391.53 135.453L391.209 135.968L391.518 136.491L392.379 135.981ZM420.104 182.84V183.84H421.857L420.964 182.331L420.104 182.84ZM391.144 182.84L390.271 183.329L390.558 183.84H391.144V182.84ZM364.864 135.981L364.004 135.471L363.71 135.967L363.992 136.471L364.864 135.981ZM378.88 112.361V111.361H378.31L378.02 111.851L378.88 112.361ZM407.092 112.361L407.941 112.89L408.893 111.361H407.092V112.361ZM448.614 182.84V183.84H449.614V182.84H448.614ZM424.804 182.84H423.804V183.84H424.804V182.84ZM424.804 89.5068V88.5068H423.804V89.5068H424.804ZM448.614 89.5068H449.614V88.5068H448.614V89.5068ZM511.462 148.533L510.611 149.059L512.524 152.154L512.462 148.516L511.462 148.533ZM510.448 89.5068V88.5068H509.431L509.448 89.524L510.448 89.5068ZM533.378 89.5068H534.378V88.5068H533.378V89.5068ZM533.378 182.84V183.84H534.378V182.84H533.378ZM512.602 182.84L511.756 183.374L512.05 183.84H512.602V182.84ZM476.624 125.831L477.47 125.297L475.585 122.311L475.624 125.842L476.624 125.831ZM477.258 182.84V183.84H478.269L478.258 182.829L477.258 182.84ZM454.328 182.84H453.328V183.84H454.328V182.84ZM454.328 89.5068V88.5068H453.328V89.5068H454.328ZM474.978 89.5068L475.828 88.9811L475.535 88.5068H474.978V89.5068ZM586.001 89.5068V88.5068V88.5068V89.5068ZM630.721 121.306V122.306H632.04L631.683 121.035L630.721 121.306ZM605.098 121.306L604.229 121.802L604.517 122.306H605.098V121.306ZM585.397 109.654V108.654V108.654V109.654ZM560.982 135.748L559.982 135.748V135.748H560.982ZM585.518 162.692V163.692V163.692V162.692ZM606.911 148.249L607.869 148.538L608.257 147.249H606.911V148.249ZM580.2 148.249H579.2V149.249H580.2V148.249ZM580.2 129.923V128.923H579.2V129.923H580.2ZM633.38 129.923H634.38V128.923H633.38V129.923ZM633.38 135.021H634.38V135.021H633.38ZM585.639 182.84V183.84V183.84V182.84ZM538.14 135.748H537.14V135.748H538.14ZM670.006 89.5068V88.5068V88.5068V89.5068ZM685.929 93.2734L686.389 92.3858L686.385 92.3836L685.929 93.2734ZM700.271 117.458V118.458H701.281L701.27 117.448L700.271 117.458ZM677.542 117.458L676.553 117.607L676.682 118.458H677.542V117.458ZM669.398 108.708V107.708V107.708V108.708ZM661.498 115.757H660.498V115.757L661.498 115.757ZM676.205 127.788L675.808 128.706L675.811 128.707L676.205 127.788ZM701 155.253H702V155.253H701ZM669.642 182.84V183.84V183.84V182.84ZM637.189 153.309H636.189H637.189ZM637.189 151.364V150.364H636.189V151.364H637.189ZM660.04 151.364L661.04 151.348L661.024 150.364H660.04V151.364ZM669.52 163.639L669.519 164.639H669.52V163.639ZM678.149 155.01H679.149V155.01L678.149 155.01ZM660.04 141.398L659.665 142.325L659.666 142.326L660.04 141.398ZM638.647 116H637.647V116L638.647 116ZM406.936 106.052V107.052H407.748L407.914 106.256L406.936 106.052ZM378.743 106.052L377.764 106.256L377.931 107.052H378.743V106.052ZM373.889 82.8398L374.327 81.9409L372.492 81.0466L372.91 83.0446L373.889 82.8398ZM383.596 87.5713L383.158 88.4702L383.607 88.6891L384.051 88.4614L383.596 87.5713ZM392.839 82.8398L393.294 81.9497L392.839 81.7165L392.383 81.9497L392.839 82.8398ZM402.083 87.5713L401.627 88.4615L402.072 88.6891L402.521 88.4702L402.083 87.5713ZM411.79 82.8398L412.769 83.0446L413.187 81.0466L411.352 81.9409L411.79 82.8398ZM383.944 93.0322L383.505 93.9308L383.952 94.1491L384.396 93.9243L383.944 93.0322ZM380.837 91.5146L381.276 90.6161L379.496 89.7469L379.853 91.6951L380.837 91.5146ZM382.636 101.321L381.652 101.502L381.802 102.321H382.636V101.321ZM403.041 101.321V102.321H403.874L404.025 101.502L403.041 101.321ZM404.841 91.5146L405.824 91.6952L406.182 89.7465L404.402 90.6161L404.841 91.5146ZM401.734 93.0322L401.283 93.9243L401.726 94.1491L402.173 93.9307L401.734 93.0322ZM392.839 88.5273L393.291 87.6352L392.839 87.4064L392.387 87.6352L392.839 88.5273ZM223.927 50.6797V51.6797H223.927L223.927 50.6797ZM207.896 37.7295L207.627 36.7665L206.825 36.9908L206.901 37.82L207.896 37.7295ZM219.656 34.4395L220.651 34.34L220.533 33.1558L219.387 33.4764L219.656 34.4395ZM223.927 38.2197V39.2197H223.927L223.927 38.2197ZM227.847 0.839844V-0.160156H226.847V0.839844H227.847ZM240.307 0.839844H241.307V-0.160156H240.307V0.839844ZM267.917 0V-1V-1V0ZM293.397 25.3398L294.397 25.3398V25.3398H293.397ZM267.917 50.6797V51.6797V51.6797V50.6797ZM242.438 25.3398H241.438V25.3398L242.438 25.3398ZM307.928 49.8398V50.8398H308.928V49.8398H307.928ZM295.468 49.8398H294.468V50.8398H295.468V49.8398ZM295.468 0.839844V-0.160156H294.468V0.839844H295.468ZM307.928 0.839844H308.928V-0.160156H307.928V0.839844ZM343.79 30.0303L342.944 30.5637L344.79 33.4904V30.0303H343.79ZM343.79 0.839844V-0.160156H342.79V0.839844H343.79ZM356.25 0.839844H357.25V-0.160156H356.25V0.839844ZM356.25 49.8398V50.8398H357.25V49.8398H356.25ZM342.95 49.8398L342.103 50.3718L342.397 50.8398H342.95V49.8398ZM324.61 20.6494L325.457 20.1174L323.61 17.1781V20.6494H324.61ZM324.61 49.8398V50.8398H325.61V49.8398H324.61ZM312.15 49.8398H311.15V50.8398H312.15V49.8398ZM312.15 0.839844V-0.160156H311.15V0.839844H312.15ZM325.38 0.839844L326.226 0.306387L325.931 -0.160156H325.38V0.839844ZM408.877 12.6699V13.6699H409.877V12.6699H408.877ZM397.397 12.6699V11.6699H396.397V12.6699H397.397ZM397.397 49.8398V50.8398H398.397V49.8398H397.397ZM384.938 49.8398H383.938V50.8398H384.938V49.8398ZM384.938 12.6699H385.938V11.6699H384.938V12.6699ZM373.457 12.6699H372.457V13.6699H373.457V12.6699ZM373.457 0.839844V-0.160156H372.457V0.839844H373.457ZM408.877 0.839844H409.877V-0.160156H408.877V0.839844ZM424.833 19.3896H423.833V20.3896H424.833V19.3896ZM444.013 19.3896V20.3896H445.013V19.3896H444.013ZM444.013 0.839844V-0.160156H443.013V0.839844H444.013ZM456.473 0.839844H457.473V-0.160156H456.473V0.839844ZM456.473 49.8398V50.8398H457.473V49.8398H456.473ZM444.013 49.8398H443.013V50.8398H444.013V49.8398ZM444.013 31.29H445.013V30.29H444.013V31.29ZM424.833 31.29V30.29H423.833V31.29H424.833ZM424.833 49.8398V50.8398H425.833V49.8398H424.833ZM412.373 49.8398H411.373V50.8398H412.373V49.8398ZM412.373 0.839844V-0.160156H411.373V0.839844H412.373ZM424.833 0.839844H425.833V-0.160156H424.833V0.839844ZM491.366 12.6699V13.6699H492.366V12.6699H491.366ZM473.166 12.6699V11.6699H472.166V12.6699H473.166ZM473.166 19.7402H472.166V20.7402H473.166V19.7402ZM490.105 19.7402H491.105V18.7402H490.105V19.7402ZM490.105 30.3096V31.3096H491.105V30.3096H490.105ZM473.166 30.3096V29.3096H472.166V30.3096H473.166ZM473.166 38.0098H472.166V39.0098H473.166V38.0098ZM491.996 38.0098H492.996V37.0098H491.996V38.0098ZM491.996 49.8398V50.8398H492.996V49.8398H491.996ZM460.706 49.8398H459.706V50.8398H460.706V49.8398ZM460.706 0.839844V-0.160156H459.706V0.839844H460.706ZM491.366 0.839844H492.366V-0.160156H491.366V0.839844ZM267.917 12.46V11.46V11.46V12.46ZM254.897 25.3398H253.897V25.3398L254.897 25.3398ZM267.917 38.2197V39.2197V39.2197V38.2197ZM280.938 25.3398L281.938 25.3399V25.3398H280.938ZM207.812 250.77H206.812C206.812 253.977 207.642 256.616 209.354 258.459C211.076 260.313 213.559 261.22 216.562 261.22V260.22V259.22C213.964 259.22 212.072 258.446 210.819 257.098C209.556 255.738 208.812 253.652 208.812 250.77H207.812ZM216.562 260.22V261.22C219.564 261.22 222.061 260.314 223.8 258.463C225.531 256.622 226.382 253.983 226.382 250.77H225.382H224.382C224.382 253.646 223.622 255.732 222.343 257.093C221.072 258.446 219.159 259.22 216.562 259.22V260.22ZM225.382 250.77H226.382V222.84H225.382H224.382V250.77H225.382ZM225.382 222.84V223.84H237.842V222.84V221.84H225.382V222.84ZM237.842 222.84H236.842V251.399H237.842H238.842V222.84H237.842ZM237.842 251.399H236.842C236.842 258.276 234.855 263.306 231.416 266.622C227.972 269.944 222.932 271.68 216.562 271.68V272.68V273.68C223.281 273.68 228.882 271.845 232.805 268.062C236.734 264.273 238.842 258.663 238.842 251.399H237.842ZM216.562 272.68V271.68C210.191 271.68 205.151 269.944 201.707 266.622C198.268 263.306 196.281 258.276 196.281 251.399H195.281H194.281C194.281 258.663 196.389 264.273 200.318 268.062C204.241 271.845 209.842 273.68 216.562 273.68V272.68ZM195.281 251.399H196.281V222.84H195.281H194.281V251.399H195.281ZM195.281 222.84V223.84H207.812V222.84V221.84H195.281V222.84ZM207.812 222.84H206.812V250.77H207.812H208.812V222.84H207.812ZM313.755 222V223C322.159 223 329.558 227.234 334.001 233.696L334.825 233.13L335.649 232.563C330.852 225.586 322.85 221 313.755 221V222ZM334.825 233.13L334.269 232.299L323.909 239.228L324.465 240.06L325.021 240.891L335.381 233.961L334.825 233.13ZM324.465 240.06L325.289 239.493C322.797 235.869 318.503 233.46 313.755 233.46V234.46V235.46C317.827 235.46 321.513 237.53 323.641 240.626L324.465 240.06ZM313.755 234.46V233.46C306.003 233.46 299.734 239.637 299.734 247.34H300.734H301.734C301.734 240.763 307.087 235.46 313.755 235.46V234.46ZM300.734 247.34H299.734C299.734 255.043 306.003 261.22 313.755 261.22V260.22V259.22C307.087 259.22 301.734 253.917 301.734 247.34H300.734ZM313.755 260.22V261.22C318.735 261.22 323.102 258.58 325.585 254.743L324.745 254.2L323.906 253.657C321.768 256.961 318.014 259.22 313.755 259.22V260.22ZM324.745 254.2L324.189 255.031L334.548 261.961L335.104 261.13L335.66 260.299L325.301 253.369L324.745 254.2ZM335.104 261.13L334.269 260.581C329.895 267.242 322.293 271.68 313.755 271.68V272.68V273.68C322.997 273.68 331.214 268.877 335.94 261.679L335.104 261.13ZM313.755 272.68V271.68C300.23 271.68 289.274 260.85 289.274 247.34H288.274H287.274C287.274 261.969 299.14 273.68 313.755 273.68V272.68ZM288.274 247.34H289.274C289.274 233.829 300.23 223 313.755 223V222V221C299.14 221 287.274 232.71 287.274 247.34H288.274ZM581.855 259.87V260.87C584.803 260.87 587.226 263.293 587.226 266.24H588.226H589.226C589.226 262.188 585.908 258.87 581.855 258.87V259.87ZM588.226 266.24L587.226 266.24C587.225 269.25 584.81 271.609 581.855 271.609V272.609V273.609C585.9 273.609 589.225 270.37 589.226 266.24L588.226 266.24ZM581.855 272.609V271.609C578.838 271.609 576.486 269.258 576.485 266.24L575.485 266.24L574.485 266.24C574.486 270.362 577.733 273.609 581.855 273.609V272.609ZM575.485 266.24H576.485C576.485 263.285 578.845 260.87 581.855 260.87V259.87V258.87C577.726 258.87 574.485 262.195 574.485 266.24H575.485ZM124.816 260.01V261.01H143.646V260.01V259.01H124.816V260.01ZM143.646 260.01H142.646V271.84H143.646H144.646V260.01H143.646ZM143.646 271.84V270.84H112.356V271.84V272.84H143.646V271.84ZM112.356 271.84H113.356V222.84H112.356H111.356V271.84H112.356ZM112.356 222.84V223.84H124.816V222.84V221.84H112.356V222.84ZM124.816 222.84H123.816V260.01H124.816H125.816V222.84H124.816ZM195.244 271.84V270.84H181.733V271.84V272.84H195.244V271.84ZM181.733 271.84L182.68 271.517L179.39 261.857L178.443 262.18L177.497 262.502L180.787 272.162L181.733 271.84ZM178.443 262.18V261.18H161.084V262.18V263.18H178.443V262.18ZM161.084 262.18L160.137 261.857L156.847 271.517L157.794 271.84L158.741 272.162L162.031 262.502L161.084 262.18ZM157.794 271.84V270.84H144.354V271.84V272.84H157.794V271.84ZM144.354 271.84L145.288 272.195L163.908 223.195L162.974 222.84L162.039 222.485L143.419 271.485L144.354 271.84ZM162.974 222.84V223.84H176.554V222.84V221.84H162.974V222.84ZM176.554 222.84L175.619 223.196L194.31 272.196L195.244 271.84L196.178 271.483L177.488 222.483L176.554 222.84ZM273.682 252.03H274.682V222.84H273.682H272.682V252.03H273.682ZM273.682 222.84V223.84H286.142V222.84V221.84H273.682V222.84ZM286.142 222.84H285.142V271.84H286.142H287.142V222.84H286.142ZM286.142 271.84V270.84H272.842V271.84V272.84H286.142V271.84ZM272.842 271.84L273.689 271.308L255.349 242.117L254.502 242.649L253.655 243.181L271.995 272.372L272.842 271.84ZM254.502 242.649H253.502V271.84H254.502H255.502V242.649H254.502ZM254.502 271.84V270.84H242.042V271.84V272.84H254.502V271.84ZM242.042 271.84H243.042V222.84H242.042H241.042V271.84H242.042ZM242.042 222.84V223.84H255.272V222.84V221.84H242.042V222.84ZM255.272 222.84L254.427 223.373L272.836 252.564L273.682 252.03L274.527 251.497L256.118 222.306L255.272 222.84ZM348.98 241.39V242.39H368.16V241.39V240.39H348.98V241.39ZM368.16 241.39H369.16V222.84H368.16H367.16V241.39H368.16ZM368.16 222.84V223.84H380.62V222.84V221.84H368.16V222.84ZM380.62 222.84H379.62V271.84H380.62H381.62V222.84H380.62ZM380.62 271.84V270.84H368.16V271.84V272.84H380.62V271.84ZM368.16 271.84H369.16V253.29H368.16H367.16V271.84H368.16ZM368.16 253.29V252.29H348.98V253.29V254.29H368.16V253.29ZM348.98 253.29H347.98V271.84H348.98H349.98V253.29H348.98ZM348.98 271.84V270.84H336.521V271.84V272.84H348.98V271.84ZM336.521 271.84H337.521V222.84H336.521H335.521V271.84H336.521ZM336.521 222.84V223.84H348.98V222.84V221.84H336.521V222.84ZM348.98 222.84H347.98V241.39H348.98H349.98V222.84H348.98ZM433.247 234.67V233.67H421.768V234.67V235.67H433.247V234.67ZM421.768 234.67H420.768V271.84H421.768H422.768V234.67H421.768ZM421.768 271.84V270.84H409.308V271.84V272.84H421.768V271.84ZM409.308 271.84H410.308V234.67H409.308H408.308V271.84H409.308ZM409.308 234.67V233.67H397.827V234.67V235.67H409.308V234.67ZM397.827 234.67H398.827V222.84H397.827H396.827V234.67H397.827ZM397.827 222.84V223.84H433.247V222.84V221.84H397.827V222.84ZM433.247 222.84H432.247V234.67H433.247H434.247V222.84H433.247ZM467.403 234.67V233.67H449.203V234.67V235.67H467.403V234.67ZM449.203 234.67H448.203V241.74H449.203H450.203V234.67H449.203ZM449.203 241.74V242.74H466.144V241.74V240.74H449.203V241.74ZM466.144 241.74H465.144V252.31H466.144H467.144V241.74H466.144ZM466.144 252.31V251.31H449.203V252.31V253.31H466.144V252.31ZM449.203 252.31H448.203V260.01H449.203H450.203V252.31H449.203ZM449.203 260.01V261.01H468.033V260.01V259.01H449.203V260.01ZM468.033 260.01H467.033V271.84H468.033H469.033V260.01H468.033ZM468.033 271.84V270.84H436.743V271.84V272.84H468.033V271.84ZM436.743 271.84H437.743V222.84H436.743H435.743V271.84H436.743ZM436.743 222.84V223.84H467.403V222.84V221.84H436.743V222.84ZM467.403 222.84H466.403V234.67H467.403H468.403V222.84H467.403ZM519.631 271.84V270.84H506.121V271.84V272.84H519.631V271.84ZM506.121 271.84L507.068 271.517L503.778 261.857L502.831 262.18L501.884 262.502L505.174 272.162L506.121 271.84ZM502.831 262.18V261.18H485.471V262.18V263.18H502.831V262.18ZM485.471 262.18L484.524 261.857L481.234 271.517L482.181 271.84L483.127 272.162L486.417 262.502L485.471 262.18ZM482.181 271.84V270.84H468.741V271.84V272.84H482.181V271.84ZM468.741 271.84L469.676 272.195L488.296 223.195L487.361 222.84L486.427 222.485L467.806 271.485L468.741 271.84ZM487.361 222.84V223.84H500.94V222.84V221.84H487.361V222.84ZM500.94 222.84L500.006 223.196L518.697 272.196L519.631 271.84L520.565 271.483L501.875 222.483L500.94 222.84ZM545.466 240.13L546.297 240.685L557.847 223.395L557.016 222.84L556.184 222.284L544.634 239.574L545.466 240.13ZM557.016 222.84V223.84H569.896V222.84V221.84H557.016V222.84ZM569.896 222.84H568.896V271.84H569.896H570.896V222.84H569.896ZM569.896 271.84V270.84H557.436V271.84V272.84H569.896V271.84ZM557.436 271.84H558.436V241.39H557.436H556.436V271.84H557.436ZM557.436 241.39L556.605 240.833L547.505 254.413L548.336 254.97L549.167 255.526L558.266 241.946L557.436 241.39ZM548.336 254.97V253.97H542.666V254.97V255.97H548.336V254.97ZM542.666 254.97L543.495 254.41L534.325 240.83L533.496 241.39L532.667 241.949L541.837 255.529L542.666 254.97ZM533.496 241.39H532.496V271.84H533.496H534.496V241.39H533.496ZM533.496 271.84V270.84H521.036V271.84V272.84H533.496V271.84ZM521.036 271.84H522.036V222.84H521.036H520.036V271.84H521.036ZM521.036 222.84V223.84H533.916V222.84V221.84H521.036V222.84ZM533.916 222.84L533.084 223.395L544.634 240.685L545.466 240.13L546.297 239.574L534.748 222.284L533.916 222.84ZM586.476 255.95V254.95H577.165V255.95V256.95H586.476V255.95ZM577.165 255.95L578.164 255.912L576.905 222.802L575.905 222.84L574.906 222.878L576.166 255.988L577.165 255.95ZM575.905 222.84V223.84H587.735V222.84V221.84H575.905V222.84ZM587.735 222.84L586.736 222.802L585.476 255.912L586.476 255.95L587.475 255.988L588.735 222.878L587.735 222.84ZM164.724 251.54V252.54H174.804V251.54V250.54H164.724V251.54ZM174.804 251.54L175.75 251.216L170.71 236.516L169.764 236.84L168.818 237.164L173.858 251.864L174.804 251.54ZM169.764 236.84L168.818 236.516L163.778 251.216L164.724 251.54L165.67 251.864L170.71 237.164L169.764 236.84ZM489.111 251.54V252.54H499.19V251.54V250.54H489.111V251.54ZM499.19 251.54L500.136 251.216L495.096 236.516L494.15 236.84L493.204 237.164L498.244 251.864L499.19 251.54ZM494.15 236.84L493.204 236.516L488.165 251.216L489.111 251.54L490.057 251.864L495.096 237.164L494.15 236.84ZM48.9023 89.5068V90.5068C60.8462 90.5069 71.7029 95.0685 79.8857 102.551L80.5605 101.812L81.2353 101.074C72.6997 93.27 61.3669 88.5069 48.9023 88.5068V89.5068ZM80.5605 101.812L79.699 101.305L67.5369 121.947L68.3984 122.455L69.26 122.963L81.4221 102.32L80.5605 101.812ZM68.3984 122.455L69.213 121.875C64.7485 115.605 57.2157 111.453 48.9023 111.453L48.9023 112.453L48.9023 113.453C56.5504 113.453 63.4838 117.277 67.5838 123.035L68.3984 122.455ZM48.9023 112.453V111.453C35.0885 111.453 23.9357 122.461 23.9355 136.173L24.9355 136.173L25.9355 136.173C25.9357 123.586 36.1728 113.453 48.9023 113.453V112.453ZM24.9355 136.173H23.9355C23.9355 149.884 35.0884 160.894 48.9023 160.894V159.894V158.894C36.1727 158.894 25.9355 148.76 25.9355 136.173H24.9355ZM48.9023 159.894L48.9023 160.894C57.6105 160.894 65.2718 156.356 69.7335 149.712L68.9033 149.154L68.0732 148.597C63.9584 154.724 56.9013 158.894 48.9023 158.894L48.9023 159.894ZM68.9033 149.154L68.0296 149.641L79.847 170.863L80.7207 170.377L81.5944 169.89L69.777 148.668L68.9033 149.154ZM80.7207 170.377L80.0434 169.641C71.8352 177.197 60.8599 181.84 48.9023 181.84V182.84V183.84C61.3854 183.84 72.8384 178.992 81.398 171.113L80.7207 170.377ZM48.9023 182.84V181.84C23.5485 181.84 3 161.525 3 136.173H2H1C1 162.643 22.4575 183.84 48.9023 183.84V182.84ZM2 136.173H3C3.00017 110.82 23.5486 90.5068 48.9023 90.5068V89.5068V88.5068C22.4576 88.5068 1.00017 109.702 1 136.173H2ZM111.752 124.569V125.569H142.606V124.569V123.569H111.752V124.569ZM142.606 124.569H143.606V89.5068H142.606H141.606V124.569H142.606ZM142.606 89.5068V90.5068H166.704V89.5068V88.5068H142.606V89.5068ZM166.704 89.5068H165.704V182.84H166.704H167.704V89.5068H166.704ZM166.704 182.84V181.84H142.606V182.84V183.84H166.704V182.84ZM142.606 182.84H143.606V145.507H142.606H141.606V182.84H142.606ZM142.606 145.507V144.507H111.752V145.507V146.507H142.606V145.507ZM111.752 145.507H110.752V182.84H111.752H112.752V145.507H111.752ZM111.752 182.84V181.84H87.6543V182.84V183.84H111.752V182.84ZM87.6543 182.84H88.6543V89.5068H87.6543H86.6543V182.84H87.6543ZM87.6543 89.5068V90.5068H111.752V89.5068V88.5068H87.6543V89.5068ZM111.752 89.5068H110.752V124.569H111.752H112.752V89.5068H111.752ZM223.848 110.443V109.443H195.067V110.443V111.443H223.848V110.443ZM195.067 110.443H194.067V124.948H195.067H196.067V110.443H195.067ZM195.067 124.948V125.948H222.972V124.948V123.948H195.067V124.948ZM222.972 124.948H221.972V145.885H222.972H223.972V124.948H222.972ZM222.972 145.885V144.885H195.067V145.885V146.885H222.972V145.885ZM195.067 145.885H194.067V161.903H195.067H196.067V145.885H195.067ZM195.067 161.903V162.903H223.848V161.903V160.903H195.067V161.903ZM223.848 161.903H222.848V182.84H223.848H224.848V161.903H223.848ZM223.848 182.84V181.84H172.418V182.84V183.84H223.848V182.84ZM172.418 182.84H173.418V89.5068H172.418H171.418V182.84H172.418ZM172.418 89.5068V90.5068H223.848V89.5068V88.5068H172.418V89.5068ZM223.848 89.5068H222.848V110.443H223.848H224.848V89.5068H223.848ZM261.427 89.5068V90.5068C267.224 90.5069 272.294 91.8054 276.892 94.1633L277.349 93.2734L277.805 92.3836C272.923 89.8807 267.541 88.5069 261.427 88.5068V89.5068ZM277.349 93.2734L276.888 94.161C281.571 96.5909 284.967 99.5161 287.219 103.24C289.473 106.966 290.632 111.578 290.691 117.468L291.691 117.458L292.691 117.448C292.629 111.306 291.418 106.317 288.931 102.205C286.442 98.0901 282.729 94.9386 277.809 92.3858L277.349 93.2734ZM291.691 117.458V116.458H268.962V117.458V118.458H291.691V117.458ZM268.962 117.458L269.951 117.309C269.451 113.996 268.491 111.567 266.927 109.969C265.332 108.337 263.246 107.708 260.819 107.708L260.819 108.708L260.819 109.708C262.89 109.708 264.389 110.234 265.497 111.367C266.638 112.533 267.501 114.479 267.973 117.607L268.962 117.458ZM260.819 108.708V107.708C256.144 107.708 251.919 111.071 251.919 115.757H252.919H253.919C253.919 112.421 256.986 109.708 260.819 109.708V108.708ZM252.919 115.757L251.919 115.757C251.919 118.832 253.362 121.047 255.986 122.987C258.542 124.876 262.335 126.592 267.228 128.706L267.625 127.788L268.022 126.87C263.07 124.731 259.51 123.104 257.175 121.378C254.907 119.702 253.919 118.028 253.919 115.757L252.919 115.757ZM267.625 127.788L267.23 128.707C277.098 132.944 283.124 136.79 286.694 140.942C290.218 145.04 291.421 149.523 291.421 155.253H292.421H293.421C293.421 149.195 292.132 144.199 288.211 139.638C284.336 135.131 277.964 131.139 268.02 126.869L267.625 127.788ZM292.421 155.253H291.421C291.421 163.7 288.535 170.304 283.376 174.81C278.199 179.332 270.619 181.84 261.062 181.84V182.84V183.84C270.951 183.84 279.05 181.244 284.692 176.316C290.351 171.374 293.421 164.184 293.421 155.253H292.421ZM261.062 182.84V181.84C251.441 181.84 243.589 179.33 238.156 174.568C232.743 169.823 229.609 162.735 229.609 153.309H228.609H227.609C227.609 163.205 230.918 170.883 236.838 176.072C242.739 181.245 251.114 183.84 261.062 183.84V182.84ZM228.609 153.309H229.609V151.364H228.609H227.609V153.309H228.609ZM228.609 151.364V152.364H251.46V151.364V150.364H228.609V151.364ZM251.46 151.364L250.46 151.381C250.523 155.235 251.503 158.531 253.31 160.89C255.136 163.274 257.767 164.639 260.94 164.639V163.639V162.639C258.401 162.639 256.352 161.573 254.897 159.673C253.422 157.747 252.518 154.907 252.46 151.348L251.46 151.364ZM260.94 163.639V164.639C266.224 164.639 270.57 160.432 270.57 155.01H269.57H268.57C268.57 159.309 265.138 162.639 260.94 162.639V163.639ZM269.57 155.01L270.57 155.01C270.57 150.876 267.674 148.033 264.082 145.887C260.484 143.738 255.84 142.085 251.834 140.471L251.46 141.398L251.086 142.326C255.223 143.993 259.634 145.56 263.056 147.604C266.483 149.651 268.57 151.973 268.57 155.01L269.57 155.01ZM251.46 141.398L251.835 140.472C244.561 137.526 239.377 134.17 236.013 130.195C232.671 126.246 231.068 121.621 231.068 116L230.068 116L229.068 116C229.068 122.046 230.809 127.142 234.486 131.487C238.141 135.806 243.653 139.316 251.085 142.325L251.46 141.398ZM230.068 116H231.068C231.068 101.421 245.249 90.5068 261.427 90.5068V89.5068V88.5068C244.545 88.5068 229.068 99.9544 229.068 116H230.068ZM330 89.5068V90.5068C335.797 90.5069 340.867 91.8053 345.466 94.1633L345.922 93.2734L346.378 92.3836C341.497 89.8807 336.114 88.5069 330 88.5068V89.5068ZM345.922 93.2734L345.461 94.161C350.144 96.5909 353.54 99.5161 355.792 103.24C358.046 106.966 359.204 111.578 359.264 117.468L360.264 117.458L361.264 117.448C361.202 111.306 359.99 106.317 357.504 102.205C355.015 98.0901 351.302 94.9386 346.382 92.3858L345.922 93.2734ZM360.264 117.458V116.458H337.535V117.458V118.458H360.264V117.458ZM337.535 117.458L338.524 117.309C338.024 113.996 337.064 111.567 335.5 109.968C333.904 108.337 331.818 107.708 329.392 107.708V108.708V109.708C331.462 109.708 332.962 110.233 334.07 111.367C335.211 112.533 336.074 114.479 336.546 117.607L337.535 117.458ZM329.392 108.708L329.392 107.708C324.717 107.708 320.491 111.072 320.491 115.757H321.491H322.491C322.491 112.421 325.559 109.708 329.392 109.708L329.392 108.708ZM321.491 115.757L320.491 115.757C320.491 118.832 321.934 121.047 324.559 122.987C327.115 124.876 330.908 126.592 335.802 128.706L336.198 127.788L336.595 126.87C331.643 124.731 328.083 123.104 325.747 121.378C323.479 119.702 322.491 118.028 322.491 115.757L321.491 115.757ZM336.198 127.788L335.804 128.707C345.671 132.944 351.697 136.79 355.267 140.942C358.79 145.04 359.993 149.523 359.993 155.253H360.993H361.993C361.993 149.195 360.704 144.199 356.783 139.638C352.909 135.131 346.537 131.139 336.593 126.869L336.198 127.788ZM360.993 155.253H359.993C359.993 163.7 357.107 170.304 351.949 174.81C346.772 179.332 339.193 181.84 329.635 181.84V182.84V183.84C339.524 183.84 347.623 181.244 353.264 176.316C358.923 171.374 361.993 164.184 361.993 155.253H360.993ZM329.635 182.84V181.84C320.014 181.84 312.162 179.33 306.73 174.568C301.316 169.823 298.183 162.735 298.183 153.309H297.183H296.183C296.183 163.205 299.491 170.883 305.411 176.072C311.313 181.245 319.687 183.84 329.635 183.84V182.84ZM297.183 153.309H298.183V151.364H297.183H296.183V153.309H297.183ZM297.183 151.364V152.364H320.033V151.364V150.364H297.183V151.364ZM320.033 151.364L319.033 151.381C319.097 155.235 320.077 158.531 321.883 160.89C323.71 163.274 326.341 164.639 329.514 164.639V163.639V162.639C326.974 162.639 324.926 161.573 323.471 159.673C321.995 157.747 321.091 154.907 321.033 151.348L320.033 151.364ZM329.514 163.639L329.514 164.639C334.797 164.639 339.143 160.432 339.143 155.01H338.143H337.143C337.143 159.309 333.711 162.639 329.514 162.639L329.514 163.639ZM338.143 155.01L339.143 155.01C339.142 150.876 336.246 148.033 332.654 145.887C329.057 143.738 324.413 142.085 320.407 140.471L320.033 141.398L319.659 142.326C323.796 143.993 328.207 145.56 331.629 147.604C335.056 149.651 337.142 151.973 337.143 155.01L338.143 155.01ZM320.033 141.398L320.409 140.472C313.134 137.526 307.95 134.17 304.586 130.195C301.244 126.246 299.642 121.621 299.642 116L298.642 116L297.642 116C297.642 122.046 299.382 127.142 303.059 131.487C306.714 135.806 312.226 139.316 319.658 142.325L320.033 141.398ZM298.642 116H299.642C299.642 101.421 313.822 90.5068 330 90.5068V89.5068V88.5068C313.118 88.5068 297.642 99.9544 297.642 116H298.642ZM392.379 135.981L391.518 136.491L419.243 183.349L420.104 182.84L420.964 182.331L393.24 135.472L392.379 135.981ZM420.104 182.84V181.84H391.144V182.84V183.84H420.104V182.84ZM391.144 182.84L392.016 182.351L365.736 135.492L364.864 135.981L363.992 136.471L390.271 183.329L391.144 182.84ZM364.864 135.981L365.724 136.492L379.74 112.872L378.88 112.361L378.02 111.851L364.004 135.471L364.864 135.981ZM378.88 112.361V113.361H407.092V112.361V111.361H378.88V112.361ZM407.092 112.361L406.243 111.833L391.53 135.453L392.379 135.981L393.228 136.51L407.941 112.89L407.092 112.361ZM448.614 182.84V181.84H424.804V182.84V183.84H448.614V182.84ZM424.804 182.84H425.804V89.5068H424.804H423.804V182.84H424.804ZM424.804 89.5068V90.5068H448.614V89.5068V88.5068H424.804V89.5068ZM448.614 89.5068H447.614V182.84H448.614H449.614V89.5068H448.614ZM511.462 148.533L512.462 148.516L511.448 89.4897L510.448 89.5068L509.448 89.524L510.462 148.55L511.462 148.533ZM510.448 89.5068V90.5068H533.378V89.5068V88.5068H510.448V89.5068ZM533.378 89.5068H532.378V182.84H533.378H534.378V89.5068H533.378ZM533.378 182.84V181.84H512.602V182.84V183.84H533.378V182.84ZM512.602 182.84L513.447 182.306L477.47 125.297L476.624 125.831L475.778 126.365L511.756 183.374L512.602 182.84ZM476.624 125.831L475.624 125.842L476.258 182.851L477.258 182.84L478.258 182.829L477.624 125.82L476.624 125.831ZM477.258 182.84V181.84H454.328V182.84V183.84H477.258V182.84ZM454.328 182.84H455.328V89.5068H454.328H453.328V182.84H454.328ZM454.328 89.5068V90.5068H474.978V89.5068V88.5068H454.328V89.5068ZM474.978 89.5068L474.127 90.0326L510.611 149.059L511.462 148.533L512.313 148.007L475.828 88.9811L474.978 89.5068ZM586.001 89.5068V90.5068C605.791 90.5068 624.817 103.973 629.758 121.576L630.721 121.306L631.683 121.035C626.472 102.47 606.579 88.5068 586.001 88.5068V89.5068ZM630.721 121.306V120.306H605.098V121.306V122.306H630.721V121.306ZM605.098 121.306L605.966 120.81C601.568 113.112 594.357 108.654 585.397 108.654V109.654V110.654C593.6 110.654 600.167 114.692 604.229 121.802L605.098 121.306ZM585.397 109.654V108.654C570.379 108.654 559.983 120.841 559.982 135.748L560.982 135.748L561.982 135.748C561.983 121.77 571.651 110.654 585.397 110.654V109.654ZM560.982 135.748H559.982C559.982 143.418 562.405 150.398 566.831 155.475C571.268 160.566 577.678 163.692 585.518 163.692V162.692V161.692C578.249 161.692 572.392 158.811 568.338 154.161C564.274 149.499 561.982 143.006 561.982 135.748H560.982ZM585.518 162.692V163.692C596.51 163.692 604.939 158.26 607.869 148.538L606.911 148.249L605.954 147.96C603.324 156.687 595.797 161.692 585.518 161.692V162.692ZM606.911 148.249V147.249H580.2V148.249V149.249H606.911V148.249ZM580.2 148.249H581.2V129.923H580.2H579.2V148.249H580.2ZM580.2 129.923V130.923H633.38V129.923V128.923H580.2V129.923ZM633.38 129.923H632.38V135.021H633.38H634.38V129.923H633.38ZM633.38 135.021H632.38C632.38 158.706 615.099 181.84 585.639 181.84V182.84V183.84C616.368 183.84 634.38 159.639 634.38 135.021H633.38ZM585.639 182.84V181.84C559.713 181.84 539.14 161.524 539.14 135.748H538.14H537.14C537.14 162.647 558.627 183.84 585.639 183.84V182.84ZM538.14 135.748H539.14C539.14 109.175 560.505 90.507 586.001 90.5068V89.5068V88.5068C559.526 88.5071 537.14 107.948 537.14 135.748H538.14ZM670.006 89.5068V90.5068C675.803 90.5068 680.874 91.8052 685.472 94.1633L685.929 93.2734L686.385 92.3836C681.503 89.8805 676.12 88.5068 670.006 88.5068V89.5068ZM685.929 93.2734L685.468 94.161C690.151 96.5909 693.547 99.5161 695.799 103.24C698.052 106.966 699.211 111.578 699.271 117.468L700.271 117.458L701.27 117.448C701.208 111.306 699.997 106.317 697.51 102.205C695.022 98.0901 691.309 94.9386 686.389 92.3858L685.929 93.2734ZM700.271 117.458V116.458H677.542V117.458V118.458H700.271V117.458ZM677.542 117.458L678.531 117.309C678.031 113.996 677.071 111.567 675.507 109.968C673.911 108.337 671.825 107.708 669.398 107.708V108.708V109.708C671.469 109.708 672.968 110.233 674.077 111.367C675.218 112.533 676.081 114.479 676.553 117.607L677.542 117.458ZM669.398 108.708V107.708C664.723 107.708 660.498 111.072 660.498 115.757H661.498H662.498C662.498 112.421 665.565 109.708 669.398 109.708V108.708ZM661.498 115.757L660.498 115.757C660.498 118.832 661.941 121.047 664.565 122.987C667.122 124.876 670.915 126.592 675.808 128.706L676.205 127.788L676.602 126.87C671.65 124.731 668.09 123.104 665.754 121.378C663.486 119.702 662.498 118.028 662.498 115.757L661.498 115.757ZM676.205 127.788L675.811 128.707C685.678 132.944 691.704 136.79 695.274 140.942C698.797 145.04 700 149.523 700 155.253H701H702C702 149.195 700.711 144.199 696.79 139.638C692.915 135.131 686.544 131.139 676.6 126.869L676.205 127.788ZM701 155.253H700C700 163.7 697.114 170.304 691.956 174.81C686.779 179.332 679.199 181.84 669.642 181.84V182.84V183.84C679.531 183.84 687.63 181.244 693.271 176.316C698.93 171.374 702 164.184 702 155.253H701ZM669.642 182.84V181.84C660.021 181.84 652.169 179.33 646.736 174.568C641.323 169.823 638.189 162.735 638.189 153.309H637.189H636.189C636.189 163.205 639.498 170.883 645.418 176.072C651.319 181.245 659.694 183.84 669.642 183.84V182.84ZM637.189 153.309H638.189V151.364H637.189H636.189V153.309H637.189ZM637.189 151.364V152.364H660.04V151.364V150.364H637.189V151.364ZM660.04 151.364L659.04 151.381C659.103 155.235 660.083 158.531 661.889 160.889C663.716 163.274 666.347 164.639 669.519 164.639L669.52 163.639L669.52 162.639C666.98 162.639 664.932 161.572 663.477 159.673C662.002 157.747 661.098 154.907 661.04 151.348L660.04 151.364ZM669.52 163.639V164.639C674.803 164.639 679.149 160.432 679.149 155.01H678.149H677.149C677.149 159.309 673.717 162.639 669.52 162.639V163.639ZM678.149 155.01L679.149 155.01C679.149 150.876 676.253 148.033 672.661 145.887C669.064 143.738 664.42 142.085 660.414 140.471L660.04 141.398L659.666 142.326C663.803 143.993 668.214 145.56 671.636 147.604C675.062 149.651 677.149 151.973 677.149 155.01L678.149 155.01ZM660.04 141.398L660.415 140.472C653.141 137.526 647.957 134.17 644.592 130.195C641.25 126.246 639.648 121.621 639.647 116L638.647 116L637.647 116C637.648 122.046 639.388 127.142 643.065 131.487C646.72 135.806 652.233 139.316 659.665 142.325L660.04 141.398ZM638.647 116H639.647C639.647 101.421 653.828 90.507 670.006 90.5068V89.5068V88.5068C653.124 88.507 637.647 99.9545 637.647 116H638.647ZM406.936 106.052V105.052H378.743V106.052V107.052H406.936V106.052ZM378.743 106.052L379.722 105.847L374.867 82.6351L373.889 82.8398L372.91 83.0446L377.764 106.256L378.743 106.052ZM373.889 82.8398L373.451 83.7387L383.158 88.4702L383.596 87.5713L384.034 86.6724L374.327 81.9409L373.889 82.8398ZM383.596 87.5713L384.051 88.4614L393.295 83.73L392.839 82.8398L392.383 81.9497L383.14 86.6811L383.596 87.5713ZM392.839 82.8398L392.383 83.73L401.627 88.4615L402.083 87.5713L402.539 86.6811L393.294 81.9497L392.839 82.8398ZM402.083 87.5713L402.521 88.4702L412.228 83.7387L411.79 82.8398L411.352 81.9409L401.645 86.6724L402.083 87.5713ZM411.79 82.8398L410.811 82.6351L405.957 105.847L406.936 106.052L407.914 106.256L412.769 83.0446L411.79 82.8398ZM383.944 93.0322L384.383 92.1337L381.276 90.6161L380.837 91.5146L380.398 92.4132L383.505 93.9308L383.944 93.0322ZM380.837 91.5146L379.853 91.6951L381.652 101.502L382.636 101.321L383.619 101.141L381.82 91.3342L380.837 91.5146ZM382.636 101.321V102.321H403.041V101.321V100.321H382.636V101.321ZM403.041 101.321L404.025 101.502L405.824 91.6952L404.841 91.5146L403.857 91.3341L402.057 101.141L403.041 101.321ZM404.841 91.5146L404.402 90.6161L401.295 92.1337L401.734 93.0322L402.173 93.9307L405.28 92.4132L404.841 91.5146ZM401.734 93.0322L402.186 92.1401L393.291 87.6352L392.839 88.5273L392.387 89.4195L401.283 93.9243L401.734 93.0322ZM392.839 88.5273L392.387 87.6352L383.492 92.1401L383.944 93.0322L384.396 93.9243L393.291 89.4194L392.839 88.5273ZM240.307 33.1797H239.307C239.307 40.3488 237.109 44.3954 234.225 46.6852C231.296 49.0102 227.47 49.6797 223.927 49.6797L223.927 50.6797L223.927 51.6797C227.664 51.6797 232.027 50.984 235.468 48.2515C238.955 45.4837 241.307 40.7804 241.307 33.1797H240.307ZM223.927 50.6797V49.6797C215.578 49.6797 209.536 44.7157 208.892 37.639L207.896 37.7295L206.901 37.82C207.657 46.1433 214.776 51.6797 223.927 51.6797V50.6797ZM207.896 37.7295L208.166 38.6925L219.926 35.4025L219.656 34.4395L219.387 33.4764L207.627 36.7665L207.896 37.7295ZM219.656 34.4395L218.661 34.539C218.784 35.7655 219.243 36.9501 220.148 37.8331C221.065 38.7271 222.346 39.2197 223.927 39.2197V38.2197V37.2197C222.777 37.2197 222.028 36.8722 221.545 36.4011C221.05 35.919 220.739 35.2134 220.651 34.34L219.656 34.4395ZM223.927 38.2197L223.927 39.2197C225.597 39.2196 226.889 38.5351 227.726 37.3541C228.528 36.2223 228.847 34.7309 228.847 33.1797H227.847H226.847C226.847 34.4984 226.57 35.5269 226.095 36.1976C225.654 36.8191 224.986 37.2197 223.927 37.2197L223.927 38.2197ZM227.847 33.1797H228.847V0.839844H227.847H226.847V33.1797H227.847ZM227.847 0.839844V1.83984H240.307V0.839844V-0.160156H227.847V0.839844ZM240.307 0.839844H239.307V33.1797H240.307H241.307V0.839844H240.307ZM267.917 0V1C281.374 1 292.397 11.8311 292.397 25.3398H293.397H294.397C294.397 10.7086 282.46 -1 267.917 -1V0ZM293.397 25.3398L292.397 25.3398C292.397 38.8485 281.374 49.6797 267.917 49.6797V50.6797V51.6797C282.46 51.6797 294.397 39.9711 294.397 25.3398L293.397 25.3398ZM267.917 50.6797V49.6797C254.392 49.6796 243.438 38.8503 243.438 25.3398L242.438 25.3398L241.438 25.3398C241.438 39.9692 253.302 51.6796 267.917 51.6797V50.6797ZM242.438 25.3398H243.438C243.438 11.8293 254.392 1.00007 267.917 1V0V-1C253.302 -0.999922 241.438 10.7105 241.438 25.3398H242.438ZM307.928 49.8398V48.8398H295.468V49.8398V50.8398H307.928V49.8398ZM295.468 49.8398H296.468V0.839844H295.468H294.468V49.8398H295.468ZM295.468 0.839844V1.83984H307.928V0.839844V-0.160156H295.468V0.839844ZM307.928 0.839844H306.928V49.8398H307.928H308.928V0.839844H307.928ZM343.79 30.0303H344.79V0.839844H343.79H342.79V30.0303H343.79ZM343.79 0.839844V1.83984H356.25V0.839844V-0.160156H343.79V0.839844ZM356.25 0.839844H355.25V49.8398H356.25H357.25V0.839844H356.25ZM356.25 49.8398V48.8398H342.95V49.8398V50.8398H356.25V49.8398ZM342.95 49.8398L343.797 49.3078L325.457 20.1174L324.61 20.6494L323.764 21.1814L342.103 50.3718L342.95 49.8398ZM324.61 20.6494H323.61V49.8398H324.61H325.61V20.6494H324.61ZM324.61 49.8398V48.8398H312.15V49.8398V50.8398H324.61V49.8398ZM312.15 49.8398H313.15V0.839844H312.15H311.15V49.8398H312.15ZM312.15 0.839844V1.83984H325.38V0.839844V-0.160156H312.15V0.839844ZM325.38 0.839844L324.534 1.3733L342.944 30.5637L343.79 30.0303L344.636 29.4968L326.226 0.306387L325.38 0.839844ZM408.877 12.6699V11.6699H397.397V12.6699V13.6699H408.877V12.6699ZM397.397 12.6699H396.397V49.8398H397.397H398.397V12.6699H397.397ZM397.397 49.8398V48.8398H384.938V49.8398V50.8398H397.397V49.8398ZM384.938 49.8398H385.938V12.6699H384.938H383.938V49.8398H384.938ZM384.938 12.6699V11.6699H373.457V12.6699V13.6699H384.938V12.6699ZM373.457 12.6699H374.457V0.839844H373.457H372.457V12.6699H373.457ZM373.457 0.839844V1.83984H408.877V0.839844V-0.160156H373.457V0.839844ZM408.877 0.839844H407.877V12.6699H408.877H409.877V0.839844H408.877ZM424.833 19.3896V20.3896H444.013V19.3896V18.3896H424.833V19.3896ZM444.013 19.3896H445.013V0.839844H444.013H443.013V19.3896H444.013ZM444.013 0.839844V1.83984H456.473V0.839844V-0.160156H444.013V0.839844ZM456.473 0.839844H455.473V49.8398H456.473H457.473V0.839844H456.473ZM456.473 49.8398V48.8398H444.013V49.8398V50.8398H456.473V49.8398ZM444.013 49.8398H445.013V31.29H444.013H443.013V49.8398H444.013ZM444.013 31.29V30.29H424.833V31.29V32.29H444.013V31.29ZM424.833 31.29H423.833V49.8398H424.833H425.833V31.29H424.833ZM424.833 49.8398V48.8398H412.373V49.8398V50.8398H424.833V49.8398ZM412.373 49.8398H413.373V0.839844H412.373H411.373V49.8398H412.373ZM412.373 0.839844V1.83984H424.833V0.839844V-0.160156H412.373V0.839844ZM424.833 0.839844H423.833V19.3896H424.833H425.833V0.839844H424.833ZM491.366 12.6699V11.6699H473.166V12.6699V13.6699H491.366V12.6699ZM473.166 12.6699H472.166V19.7402H473.166H474.166V12.6699H473.166ZM473.166 19.7402V20.7402H490.105V19.7402V18.7402H473.166V19.7402ZM490.105 19.7402H489.105V30.3096H490.105H491.105V19.7402H490.105ZM490.105 30.3096V29.3096H473.166V30.3096V31.3096H490.105V30.3096ZM473.166 30.3096H472.166V38.0098H473.166H474.166V30.3096H473.166ZM473.166 38.0098V39.0098H491.996V38.0098V37.0098H473.166V38.0098ZM491.996 38.0098H490.996V49.8398H491.996H492.996V38.0098H491.996ZM491.996 49.8398V48.8398H460.706V49.8398V50.8398H491.996V49.8398ZM460.706 49.8398H461.706V0.839844H460.706H459.706V49.8398H460.706ZM460.706 0.839844V1.83984H491.366V0.839844V-0.160156H460.706V0.839844ZM491.366 0.839844H490.366V12.6699H491.366H492.366V0.839844H491.366ZM267.917 12.46V11.46C260.165 11.46 253.897 17.6371 253.897 25.3398H254.897H255.897C255.897 18.7627 261.249 13.46 267.917 13.46V12.46ZM254.897 25.3398L253.897 25.3398C253.898 33.0426 260.165 39.2196 267.917 39.2197V38.2197V37.2197C261.249 37.2197 255.898 31.917 255.897 25.3398L254.897 25.3398ZM267.917 38.2197V39.2197C275.595 39.2197 281.937 33.0462 281.938 25.3399L280.938 25.3398L279.938 25.3398C279.937 31.9134 274.519 37.2197 267.917 37.2197V38.2197ZM280.938 25.3398H281.938C281.938 17.6335 275.595 11.46 267.917 11.46V12.46V13.46C274.519 13.46 279.938 18.7662 279.938 25.3398H280.938Z" fill="url(#paint1_linear_292_85)" mask="url(#path-1-inside-1_292_85)"/>
</g>
<defs>
<filter id="filter0_d_292_85" x="0" y="0" width="703" height="277.68" filterUnits="userSpaceOnUse" color-interpolation-filters="sRGB">
<feFlood flood-opacity="0" result="BackgroundImageFix"/>
<feColorMatrix in="SourceAlpha" type="matrix" values="0 0 0 0 0 0 0 0 0 0 0 0 0 0 0 0 0 0 127 0" result="hardAlpha"/>
<feOffset dy="3"/>
<feGaussianBlur stdDeviation="1"/>
<feComposite in2="hardAlpha" operator="out"/>
<feColorMatrix type="matrix" values="0 0 0 0 0 0 0 0 0 0 0 0 0 0 0 0 0 0 0.6 0"/>
<feBlend mode="normal" in2="BackgroundImageFix" result="effect1_dropShadow_292_85"/>
<feBlend mode="normal" in="SourceGraphic" in2="effect1_dropShadow_292_85" result="shape"/>
</filter>
<linearGradient id="paint0_linear_292_85" x1="654.4" y1="36.3573" x2="512.965" y2="404.767" gradientUnits="userSpaceOnUse">
<stop stop-color="#C49337"/>
<stop offset="0.275" stop-color="#FCF7CD"/>
<stop offset="0.495" stop-color="#EDCD78"/>
<stop offset="0.63" stop-color="#A7602B"/>
<stop offset="0.825" stop-color="#FDF8D0"/>
<stop offset="1" stop-color="#BB9138"/>
</linearGradient>
<linearGradient id="paint1_linear_292_85" x1="351.5" y1="0" x2="351.5" y2="232.914" gradientUnits="userSpaceOnUse">
<stop stop-color="white" stop-opacity="0.53"/>
<stop offset="1" stop-color="white" stop-opacity="0"/>
</linearGradient>
</defs>
</svg>
