<svg width="19" height="19" viewBox="0 0 19 19" fill="none" xmlns="http://www.w3.org/2000/svg">
<path d="M0.871866 2.5803C0.560822 2.26926 0.436362 1.8189 0.545318 1.39891C0.654302 0.978871 0.980163 0.65301 1.40016 0.544069C1.8202 0.435085 2.27051 0.559572 2.58155 0.870616L17.8109 16.0999C18.1219 16.411 18.2464 16.8613 18.1374 17.2813C18.0285 17.7013 17.7026 18.0272 17.2826 18.1362C16.8626 18.2451 16.4123 18.1206 16.1013 17.8096L0.871866 2.5803Z" fill="white"/>
<path d="M17.8117 2.5803C18.1228 2.26926 18.2472 1.8189 18.1383 1.39891C18.0293 0.978871 17.7034 0.65301 17.2834 0.544069C16.8634 0.435085 16.4131 0.559572 16.102 0.870616L0.872709 16.0999C0.561665 16.411 0.437151 16.8613 0.546164 17.2813C0.655105 17.7013 0.980952 18.0272 1.40101 18.1362C1.82101 18.2451 2.2713 18.1206 2.58234 17.8096L17.8117 2.5803Z" fill="white"/>
</svg>
