<svg width="122" height="852" viewBox="0 0 122 852" fill="none" xmlns="http://www.w3.org/2000/svg">
<path d="M42.234 0.888975L42.234 28.5926C34.376 29.7778 31.559 33.037 31.559 38.5186C31.559 43.7038 35.2656 48.1483 40.1583 48.1483C46.6819 48.1483 49.6472 42.2223 54.8364 30.2223C65.2149 6.07409 73.9625 -3.233e-06 88.3441 -3.86164e-06C109.546 -4.7884e-06 122 14.5185 122 38.2223C122 62.0742 109.546 77.7779 85.9719 77.778L83.5996 77.778L83.5996 49.926C92.6437 49.7778 98.5743 45.3335 98.5743 38.3705C98.5743 32.5927 93.9781 27.8519 88.0476 27.8519C79.3 27.8519 75.4451 40.0001 71.442 49.926C64.1771 67.852 54.6882 76.0002 40.4548 76.0002C21.7736 76.0002 8.1333 57.9261 8.1333 37.7779C8.1333 30.5186 9.7642 24.1483 12.7295 18.3704C18.8083 6.66669 27.5559 1.03711 42.234 0.888975Z" fill="#8C4F36" fill-opacity="0.4"/>
<path d="M57.441 82.4214L63.66 82.4214C93.1261 82.4214 122 103.93 122 140.612C122 172.875 96.6798 198.508 64.5484 198.508C31.3805 198.508 8.13331 171.843 8.1333 140.17C8.1333 115.568 24.8653 91.8498 46.9279 85.6624L46.9279 116.894C37.8956 122.05 32.7131 130.447 32.7131 140.907C32.7131 158.437 46.9279 170.665 64.5484 170.665C82.7612 170.665 97.4202 159.174 97.4202 140.759C97.4202 127.795 91.0531 118.072 79.7997 114.684L79.7997 147.241L57.441 147.241L57.441 82.4214Z" fill="#8C4F36" fill-opacity="0.4"/>
<path d="M122 204.312L122 229.636L52.449 273.488L122 272.716L122 300.664L8.13331 300.664L8.13331 275.495L80.1463 231.025L8.13331 232.26L8.13331 204.312L122 204.312Z" fill="#8C4F36" fill-opacity="0.4"/>
<path d="M122 307.629L122 336.651L8.13331 336.651L8.13331 307.629L122 307.629Z" fill="#8C4F36" fill-opacity="0.4"/>
<path d="M42.234 415.318L42.234 443.021C34.376 444.207 31.559 447.466 31.559 452.947C31.559 458.133 35.2656 462.577 40.1583 462.577C46.6819 462.577 49.6472 456.651 54.8365 444.651C65.2149 420.503 73.9625 414.429 88.3441 414.429C109.546 414.429 122 428.947 122 452.651C122 476.503 109.546 492.207 85.9719 492.207L83.5997 492.207L83.5997 464.355C92.6438 464.207 98.5743 459.762 98.5743 452.799C98.5743 447.021 93.9781 442.281 88.0476 442.281C79.3 442.281 75.4452 454.429 71.442 464.355C64.1771 482.281 54.6882 490.429 40.4549 490.429C21.7736 490.429 8.13332 472.355 8.13332 452.207C8.13332 444.947 9.76422 438.577 12.7295 432.799C18.8083 421.095 27.5559 415.466 42.234 415.318Z" fill="#8C4F36" fill-opacity="0.4"/>
<path d="M42.234 498.9L42.234 526.604C34.376 527.789 31.559 531.048 31.559 536.53C31.559 541.715 35.2656 546.159 40.1583 546.159C46.6819 546.159 49.6472 540.233 54.8365 528.233C65.2149 504.085 73.9625 498.011 88.3441 498.011C109.546 498.011 122 512.53 122 536.233C122 560.085 109.546 575.789 85.9719 575.789L83.5997 575.789L83.5997 547.937C92.6438 547.789 98.5743 543.345 98.5743 536.382C98.5743 530.604 93.9781 525.863 88.0476 525.863C79.3 525.863 75.4452 538.011 71.442 547.937C64.1771 565.863 54.6882 574.011 40.4549 574.011C21.7736 574.011 8.13332 555.937 8.13332 535.789C8.13332 528.53 9.76422 522.159 12.7295 516.381C18.8083 504.678 27.5559 499.048 42.234 498.9Z" fill="#8C4F36" fill-opacity="0.4"/>
<path d="M122 581.593L122 644.28L8.13333 644.28L8.13332 581.593L33.6764 581.593L33.6764 616.673L51.3719 616.673L51.3719 582.661L76.915 582.661L76.915 616.673L96.457 616.673L96.457 581.593L122 581.593Z" fill="#8C4F36" fill-opacity="0.4"/>
<path d="M122 651.245L122 680.617L76.4534 680.617L76.4534 718.225L122 718.225L122 747.597L8.13333 747.597L8.13333 718.225L50.9103 718.225L50.9103 680.617L8.13333 680.617L8.13333 651.245L122 651.245Z" fill="#8C4F36" fill-opacity="0.4"/>
<path d="M65.0667 852C96.6788 852 122 826.4 122 794.832C122 779.936 116.211 766.267 106.796 756.048L80.9035 770.453C88.6939 775.68 94.0052 784.649 94.0052 794.832C94.0052 811.008 81.1087 824.044 65.0667 824.044C49.0247 824.044 36.1282 811.008 36.1282 794.832C36.1282 785.104 40.9925 776.287 48.3301 771.068L23.1469 756.244C13.822 766.433 8.13333 779.956 8.13333 794.832C8.13333 826.4 33.4545 852 65.0667 852Z" fill="#8C4F36" fill-opacity="0.4"/>
<path d="M36.0166 392.627L64.8331 409.71L122 377.679L122 342.38L64.8331 376.173L36.0166 358.24L36.0166 392.627Z" fill="#8C4F36" fill-opacity="0.4"/>
<path fill-rule="evenodd" clip-rule="evenodd" d="M-2.18333e-05 352.513L28.3189 358.431L28.3189 392.794L-1.98139e-05 398.711L5.77207 386.879L-2.08236e-05 375.612L5.77207 364.345L-2.18333e-05 352.513ZM12.4345 364.77L6.93839 375.612L12.4345 386.454L10.5835 390.242L22.547 388.049L22.547 363.177L10.5835 360.984L12.4345 364.77Z" fill="#8C4F36" fill-opacity="0.4"/>
</svg>
